<svg xmlns="http://www.w3.org/2000/svg" xmlns:xlink="http://www.w3.org/1999/xlink" width="190" height="234" viewBox="0 0 190 234">
    <defs>
        <rect id="a" width="190" height="190" rx="95"/>
    </defs>
    <g fill="none" fill-rule="evenodd">
        <use fill="#7385BA" opacity=".205" transform="translate(0 44)" xlink:href="#a"/>
        <path fill="#4F2E16" d="M74.423 201.202l-.847.667v-1.335l.847-.665v1.333"/>
        <path fill="#FFDDA8" d="M116.107 140.115l-5.465-3.147L93.08 126.87l-16.341 9.375-2.7 1.552-.273.167-20.265 11.63 16.046 9.239 1.613.927.283.167 2.601 1.494 2.591 1.497 17.296 9.952 17.674-10.158 2.593-1.491.273-.167 2.61-1.497 16.402-9.42.018-.022-17.393-10"/>
        <path fill="#BC7C46" d="M93.5 173.009l-.014 39.86-17.1-9.813-.068-.041-3.019-1.73-1.017-.582-1.317-.754-1.597-.914L53.5 189.92l.012-40.05 18.785 10.873 1.013.59 3.087 1.783L93.5 173.01"/>
        <path fill="#DDA866" d="M116.306 159.326l-1.397.822-1.01.593-.205.123-.261.155-2.523 1.469-17.396 10.183-.014 40.198 17.396-10.113 2.988-1.732 1.014-.597 17.592-10.217.01-40.34-16.194 9.456"/>
        <path fill="#4F2E16" d="M97.109 204.702l-.218.167.001-4.836.217-.164v4.833"/>
        <path fill="#4F2E16" d="M97.5 200.565l-.174.308-.822-.574-.82 1.57-.184-.095 1.004-1.905.996.696M100.108 202.703l-.217.166.001-4.84.217-.16-.001 4.834"/>
        <path fill="#4F2E16" d="M100.5 198.564l-.182.314-.813-.575-.823 1.566-.182-.093 1.005-1.907.995.695M100.375 203.157l-4.752 2.712-.123-.075.122-.218 4.753-2.707.125.073-.125.215"/>
        <path fill="#4F2E16" d="M95.476 199.163c-.383.215-.695.737-.697 1.169l-.001 5.707c0 .43.311.604.695.392l5.065-2.857c.377-.214.69-.737.683-1.167l.006-5.706c.005-.433-.311-.609-.686-.393l-5.065 2.855zm5.062 4.722l-5.065 2.855c-.537.301-.973.058-.973-.547l.001-5.708c0-.602.436-1.335.975-1.633l5.065-2.856c.53-.297.959-.056.959.547v5.71c-.001.601-.431 1.33-.962 1.632zM104.467 194.165c-.385.212-.689.734-.689 1.164l-.004 5.714c.004.424.308.602.693.389l5.071-2.856c.375-.213.691-.736.691-1.166v-5.714c0-.43-.313-.606-.69-.387l-5.072 2.856zm5.068 4.72l-5.07 2.856c-.532.3-.965.055-.965-.544l.002-5.711c0-.602.434-1.335.965-1.637l5.073-2.853c.53-.297.96-.055.96.544l-.001 5.712c-.001.601-.43 1.332-.964 1.633z"/>
        <path fill="#4F2E16" d="M107.005 198.87l-.119-.094.001-4.641.12-.266.107.085-.001 4.65-.108.265"/>
        <path fill="#4F2E16" d="M107.32 198.206l-1.636.583-.184-.061.184-.193 1.635-.585.181.065-.18.19M108.5 192.87v1.916c.007.512-.416 1.147-.93 1.402l-1.144.568c-.51.263-.926.052-.926-.464v-1.915l.564-.284.002 2.052.15.077.159-.237v-2.052l2.125-1.064"/>
        <path fill="#F9C98A" d="M92.578 127.87L54.5 150.193l38.924 22.675 38.076-22.156-38.922-22.844"/>
        <path fill="#BC7C46" d="M132.5 150.87v.309l-39 22.69v-.314l39-22.686M113.5 160.71l-.264.16L73.5 138.026l.267-.158L113.5 160.71"/>
        <path fill="#BC7C46" d="M114.109 161.11l-.002.52-.215-.002v-.398l.217-.12"/>
        <path fill="#9B7451" d="M116.5 159.87l-.014 39.895-4.986 3.104.01-39.874 4.99-3.126"/>
        <path fill="#CAAF8F" d="M116.5 159.77l-2.621 1.47-.274.164-2.605 1.465-40.5-22.911 2.493-1.4.274-.164 2.712-1.525 40.521 22.9"/>
        <path fill="#9B7451" d="M76.5 163l-.011 39.87-.065-.042-4.924-3.06.014-39.899L76.5 163"/>
        <path fill="#CAAF8F" d="M115.5 140.017l-39.518 22.852-2.593-1.508-.278-.164-2.322-1.332-.289-.165 33.212-19.187 2.5-1.443 3.818-2.2 2.129 1.218 1.386.81 1.955 1.119"/>
        <path fill="#E5E0DC" d="M130.498 166.442L119.5 172.87l.001-9.575 10.999-6.425-.002 9.573"/>
        <path fill="#4F2E16" d="M129.5 158.894l-9 4.975v-1.026l9-4.974v1.025"/>
        <path fill="#B2AEAB" d="M129.5 161.364l-9 5.505v-.501l9-5.499v.495M129.5 162.37l-9 5.5v-.5l9-5.5v.5M129.5 163.368l-9 5.501v-.5l9-5.5v.499M129.5 165.371l-9 5.498v-.5l8.999-5.5.001.502"/>
        <path fill="#4F2E16" d="M113.5 139.639l-9.933 1.536-10.896 1.694-.171-.957 13.592-2.11 6.008-.933 1.4.77"/>
        <path fill="#939899" d="M92.754 140.87l1.746 2.796-2.256 1.203-1.744-2.793 2.254-1.207"/>
        <path fill="#939899" d="M91.57 139.96a2.46 2.46 0 0 0-.07.57c.004.368.075.76.198 1.144l.007.01c.128-.015.265.03.418.11.56.303 1.008 1.023 1.018 1.62-.01.168-.033.31-.108.406.293.297.611.55.96.734.192.106.385.176.566.228.46.138.878.108 1.202-.063.226-.124.407-.314.534-.552.137-.26.2-.584.205-.958 0-1.484-1.122-3.291-2.503-4.033-.347-.182-.673-.284-.984-.303-.287-.02-.554.03-.778.15-.328.176-.562.502-.665.937"/>
        <path fill="#939899" d="M90.5 140.052l1.89-1.025a1.44 1.44 0 0 1 .788-.154l3.322 5.41a1.358 1.358 0 0 1-.54.565l-1.89 1.021-1.066-1.74.194-.2c.076-.098.1-.243.109-.416-.01-.609-.464-1.345-1.03-1.655-.155-.081-.293-.127-.423-.112l-.007-.01-.278.059-1.069-1.743"/>
        <path fill="#D1D1D1" d="M94.01 143.408c-.011.173-.032.31-.107.411l-.196.19c-.17.089-.43.081-.713-.07l-.249-.17a2.157 2.157 0 0 1-.615-.843 1.562 1.562 0 0 1-.14-.602c.012-.29.12-.5.303-.6l.271-.048.008.006c.13-.02.27.03.422.11l.25.172.115-.1.736.73-.225.202c.084.202.14.413.14.612zm-1.015-3.23a1.984 1.984 0 0 0-.561-.22c-.453-.141-.872-.11-1.2.069-.453.23-.734.762-.734 1.505 0 .711.26 1.505.68 2.207.183.301.388.583.617.84.366.404.766.744 1.197.975.69.37 1.316.401 1.77.16.332-.18.559-.5.667-.941.044-.17.078-.36.067-.562-.002-1.486-1.125-3.29-2.503-4.033z"/>
        <path fill="#4F2E16" d="M73.416 161.46l-.01 40.41-.822-.606.013-40.395.819.591"/>
        <path fill="#D1D1D1" d="M93.324 142.586l-.171.165a1.792 1.792 0 0 0-.477-.682l.088-.082.56.6"/>
        <path fill="#4F2E16" d="M93.5 142.73l-1.052 1.006-.887.839-18.055 17.294-1.006-.61 18.485-17.554.888-.841 1.04-.995c.25.217.454.528.587.861"/>
        <path fill="#4F2E16" d="M92.978 142.223c.056.088.108.196.133.292l-.008-.005-.214-.19.089-.097M157.499 68.87L95.5 140.296c.153.181.31.377.442.572L157.5 69.952l-.001-1.083"/>
        <path fill="#4F2E16" d="M93.023 142.87L30.5 68.327l.552-.459L93.5 142.56l-.477.31"/>
        <path fill="#4F2E16" d="M92.917 142.87L70.5 90.146l.65-.278L93.5 142.7l-.583.17"/>
        <path fill="#4F2E16" d="M93.002 142.253c.056.088.109.196.133.292l-.008-.005-.262-.125.106-.221.031.059M119.497 87.963L95.145 139.09a4.496 4.496 0 0 0-.561-.5l24.27-50.93.643.302"/>
        <path fill="#A20F0F" d="M142.105 15.86C115.888-2.108 73.374-2.12 47.15 15.833c-26.227 17.952-26.235 47.07-.02 65.037 26.215 17.966 68.728 17.98 94.957.026 26.222-17.951 26.231-47.07.018-65.036"/>
        <path fill="#D5EEFA" d="M164.5 42.424c-1.854-10.29-8.545-20.251-20.07-28.156-5.124-3.507-10.845-6.366-16.93-8.566-7.146-2.588-14.818-4.277-22.638-5.062A103.986 103.986 0 0 0 94.594.132c-.39 0-.77 0-1.158.015-2.887.026-5.781.176-8.653.453-2.69.26-5.374.62-8.018 1.103l-.183.033a92.559 92.559 0 0 0-8.57 1.952h-.018c-8.44 2.356-16.331 5.867-23.17 10.55a59.878 59.878 0 0 0-6.63 5.239C53.097 11.02 71.887 7.42 90.1 8.664c.33-.119.669-.226 1.025-.32l.193-.041a8.91 8.91 0 0 1 1.098-.226c.328-.052.664-.101 1.011-.128.186-.016.379-.034.565-.042.406-.008.811-.006 1.217.008.243.01.48.026.724.043.226.025.456.052.676.084l.057.01c.198.025.389.051.584.093l.146.024c.176.036.352.075.519.12l.155.032a10.07 10.07 0 0 1 2.457.988c.436.254.826.529 1.146.825 1.532 1.39 1.704 3.143.514 4.619-.405.488-.964.951-1.666 1.355-1.374.792-3.121 1.254-4.918 1.363-.676.052-1.36.042-2.044-.009a12.393 12.393 0 0 1-3.216-.64 9.053 9.053 0 0 1-1.61-.717 7.964 7.964 0 0 1-.836-.557c-3.968.46-12.534 1.648-19.6 4.292-4.322 1.608-10.088 4.05-17.313 9.003-15.966 10.93-22.67 25.81-20.092 40.057 3.366 4.905 8.009 9.5 13.923 13.553a64.227 64.227 0 0 0 4.085 2.588c7.197 4.224 15.35 7.294 23.934 9.192 22.364 4.987 47.65 2.086 66.63-8.676a68.194 68.194 0 0 0 4.938-3.074c15.975-10.933 22.68-25.812 20.1-40.059"/>
        <path fill="#D5EEFA" d="M44.823 14.238a59.878 59.878 0 0 0-6.628 5.239 76.18 76.18 0 0 1 6.47-3.25 48.734 48.734 0 0 1 3.492-4.115 68.505 68.505 0 0 0-3.334 2.126"/>
        <path fill="#EAF5F9" d="M43.268 51.488c2.534.845 5.909 3.371 9.286 1.688 2.533-1.684 5.065-2.525 5.909-5.895 1.687 5.053 3.372 15.166 10.967 13.483 1.69 0 4.223-3.368 5.066-5.897 2.53 10.112 15.19 13.486 25.32 11.804 5.064-1.685 11.817-3.366 13.506-8.42 1.691-4.213 5.067-7.583 5.068-11.797 0 1.685.843 4.213 2.53 3.372 1.69 0 0-3.37.847-5.055 8.438 5.058 23.628 8.43 27.852-2.522 1.69-5.053 2.537-11.793-1.681-16.852-1.687-1.683-2.53-4.21-4.219-5.898 1.69.842 2.532-1.684 2.532-2.528.3-.255.566-.519.813-.785a62.307 62.307 0 0 0-2.635-1.918c-5.123-3.507-10.844-6.366-16.928-8.566-7.147-2.588-14.819-4.277-22.639-5.062A103.986 103.986 0 0 0 94.594.132c-.39 0-.77 0-1.158.015-2.887.026-5.781.176-8.653.453-2.69.26-5.374.62-8.018 1.103l-.183.033a92.559 92.559 0 0 0-8.57 1.952h-.018c-7.103 1.982-13.812 4.795-19.837 8.424a48.734 48.734 0 0 0-3.491 4.115c13.677-6.106 29.767-8.633 45.433-7.563.33-.119.669-.226 1.025-.32l.193-.041a8.91 8.91 0 0 1 1.098-.226c.328-.052.664-.101 1.011-.128.186-.016.379-.034.565-.042.406-.008.811-.006 1.217.008.243.01.48.026.724.043.226.025.456.052.676.084l.057.01c.198.025.389.051.584.093l.146.024c.176.036.352.075.519.12l.155.032a10.07 10.07 0 0 1 2.457.988c.436.254.826.529 1.146.825 1.532 1.39 1.704 3.143.514 4.619-.405.488-.964.951-1.666 1.355-1.374.792-3.121 1.254-4.918 1.363-.676.052-1.36.042-2.044-.009a12.393 12.393 0 0 1-3.216-.64 9.053 9.053 0 0 1-1.61-.717 7.964 7.964 0 0 1-.836-.557c-3.968.46-12.534 1.648-19.6 4.292-4.322 1.608-10.088 4.05-17.313 9.003a59.248 59.248 0 0 0-7.223 5.794h.358c-5.065 3.37-8.444 12.638-.85 16.851"/>
        <path fill="#CC0E0E" d="M88.294 15.054c-4.695.562-9.321 1.66-14.17 2.926-8.118 2.115-15.863 5.7-22.796 10.484C35.34 39.49 28.627 54.498 31.208 68.87c-10.942-16.016-8.494-35.297 7.314-49.852C53.445 10.487 72.262 6.857 90.5 8.11a9.71 9.71 0 0 0-1.367.646c-2.954 1.716-3.24 4.392-.839 6.297M101.706 16.048c4.695.562 9.323 1.663 14.175 2.932 8.114 2.118 15.86 5.706 22.796 10.49 15.982 11.031 22.693 26.035 20.1 40.4 10.956-16.001 8.517-35.277-7.291-49.832-14.92-8.534-33.74-12.174-51.986-10.932.48.187.947.4 1.369.647 2.951 1.716 3.239 4.393.837 6.295"/>
        <path fill="#CC0E0E" d="M72.87 94.87c-8.543-1.913-16.66-5.007-23.824-9.262-1.025-7.114-.795-15.928 2.328-26.213 5.75-18.983 24.138-37.113 38.925-42.526.988.348 2.083.57 3.201.646-10.36 9.777-24.752 67.335-20.63 77.354M116.104 94.87c8.55-1.91 16.673-4.996 23.846-9.246 1.028-7.113.803-15.926-2.312-26.214-5.746-18.982-24.138-37.121-38.931-42.54-.998.347-2.09.567-3.207.642 10.368 9.783 24.735 67.342 20.604 77.357"/>
        <path fill="#E04D27" d="M89.136 9.757a9.67 9.67 0 0 1 1.364-.646c-18.19-1.256-36.958 2.378-51.842 10.912a53.183 53.183 0 0 0-3.024 3.038c-2.166 5.164-1.558 10.338 4.724 13.113.751.376 1.52.591 2.3.695 2.52-2.608 5.443-5.09 8.773-7.392 6.914-4.788 14.64-8.375 22.736-10.491 4.836-1.267 9.45-2.365 14.133-2.928-2.395-1.905-2.11-4.584.836-6.3M158.999 30.043c-.497-1.475-1.285-3.231-2.189-4.945a51.13 51.13 0 0 0-4.955-5.156C136.83 11.482 117.875 7.873 99.5 9.104c.483.186.954.396 1.379.641 2.972 1.702 3.261 4.356.842 6.242 4.73.557 9.39 1.648 14.277 2.906 8.171 2.1 15.973 5.657 22.957 10.4 5.568 3.786 10.017 8.041 13.35 12.576 6.227-.348 8.25-6.43 6.694-11.826M93.5 17.51a12.346 12.346 0 0 1-3.212-.64c-13.14 4.764-29.107 19.448-36.597 35.853-.784 1.727 1.042 5.672 1.945 7.076 1.472 2.3 3.802 4.21 6.49 4.845 2.959.696 5.915-.304 8.424-1.87 1.796-1.125 6.463-4.249 7.022-6.41 4.4-16.931 10.68-33.946 15.928-38.853M98.74 16.87a12.555 12.555 0 0 1-3.24.64c5.728 5.344 12.666 24.949 17.098 43.257 3.68 3.559 8.185 6.322 13.519 4.552 6.866-2.445 8.35-8.282 8.383-14.73-7.925-15.536-23.139-29.152-35.76-33.72"/>
    </g>
</svg>
