<svg xmlns="http://www.w3.org/2000/svg" xmlns:xlink="http://www.w3.org/1999/xlink" width="1440" height="695" viewBox="0 0 1440 695">
    <defs>
        <path id="a" d="M0 0h1443v705H0z"/>
        <path id="c" d="M.5.5h2158v1441H.5z"/>
        <linearGradient id="e" x1="50%" x2="50%" y1="3.917%" y2="73.115%">
            <stop offset="0%" stop-color="#5D6165" stop-opacity="0"/>
            <stop offset="98.87%" stop-color="#5D6165"/>
        </linearGradient>
        <path id="g" d="M366.585 162.96c-24.264 23.991-43.491 40.912-57.68 50.763-21.284 14.776-23.897 26.99-70.594 24.298-46.696-2.692-70.675-24.67-99.64-50.146-28.965-25.475-42.42-41.017-66.12-57.95-23.698-16.932-46.611-27.242-49.102-23.806-2.49 3.435-5.863 138.835-1.088 147.753 1.505 2.81 7.204 6.321 11.041 12.361 4.28 6.735 8.216 7.776 14.16 27.142 5.196 16.935-3.154 32.943-10.219 69.909-1.691 8.849-3.32 28.896 2.805 39.975 6.125 11.08 83.927 78.698 86.593 82.28 1.777 2.388-5.005 12.728-20.346 31.02"/>
        <filter id="f" width="114.4%" height="112.2%" x="-7.1%" y="-5.5%" filterUnits="objectBoundingBox">
            <feMorphology in="SourceAlpha" operator="dilate" radius="2.5" result="shadowSpreadOuter1"/>
            <feOffset dy="2" in="shadowSpreadOuter1" result="shadowOffsetOuter1"/>
            <feMorphology in="SourceAlpha" radius="2.5" result="shadowInner"/>
            <feOffset dy="2" in="shadowInner" result="shadowInner"/>
            <feComposite in="shadowOffsetOuter1" in2="shadowInner" operator="out" result="shadowOffsetOuter1"/>
            <feGaussianBlur in="shadowOffsetOuter1" result="shadowBlurOuter1" stdDeviation="7"/>
            <feColorMatrix in="shadowBlurOuter1" values="0 0 0 0 0.0156862745 0 0 0 0 0.725490196 0 0 0 0 0.31372549 0 0 0 0.318591565 0"/>
        </filter>
        <path id="i" d="M23.609 22.982v83.91"/>
        <filter id="h" width="4900%" height="158.4%" x="-2400%" y="-26.8%" filterUnits="objectBoundingBox">
            <feMorphology in="SourceAlpha" operator="dilate" radius="2.5" result="shadowSpreadOuter1"/>
            <feOffset dy="2" in="shadowSpreadOuter1" result="shadowOffsetOuter1"/>
            <feMorphology in="SourceAlpha" radius="2.5" result="shadowInner"/>
            <feOffset dy="2" in="shadowInner" result="shadowInner"/>
            <feComposite in="shadowOffsetOuter1" in2="shadowInner" operator="out" result="shadowOffsetOuter1"/>
            <feGaussianBlur in="shadowOffsetOuter1" result="shadowBlurOuter1" stdDeviation="7"/>
            <feColorMatrix in="shadowBlurOuter1" values="0 0 0 0 0.0156862745 0 0 0 0 0.725490196 0 0 0 0 0.31372549 0 0 0 0.318591565 0"/>
        </filter>
    </defs>
    <g fill="none" fill-rule="evenodd" transform="translate(-2)">
        <mask id="b" fill="#fff">
            <use xlink:href="#a"/>
        </mask>
        <g mask="url(#b)" opacity=".401">
            <g transform="translate(-689.183 -747.418)">
                <mask id="d" fill="#fff">
                    <use xlink:href="#c"/>
                </mask>
                <path stroke="#7EBC98" stroke-width="5" d="M-17.5 1015.637c7.848-1 23.433 3.574 26.267 10.873 18.461 1.307 37.408 18.254 53.715 26.685 11.262 5.827 22.452 10.235 34.434 12.867 12.036 2.646 20.555 4.235 29.055 12.689 6.962 6.92 8.689 21.122 19.552 18.249 2.234-.592 4.443-8.046 9.03-8.767 7.409-1.16 10.412 4.046 12.991 10.212 3.95 9.454-2.042 26.697 12.578 29.407 13.614 2.52 21.115-12.184 26.393 5.792 1.349 4.59-.286 9.606.967 14.097 2.283 8.187 9.55 13.057 16.244 19.051 13.666 12.235 27.306 27.36 42.73 37.254 9.784 6.278 22.612 12.105 34.717 11.088 12.369-1.043 16.75-14.591 29.634-13.45 18.376 1.632 36.941 22.36 52.405 31.311 19.741 11.422 34.253 27.254 54.955 36.533 28.573 12.804 58.354 18.895 87.214 33.133 17.093 8.428 30.222 17.131 43.489 30.72 16.554 16.955 38.684 26.51 55.577 42.279 19.265 17.984 39.726 41.687 67.364 38.937 9.638-.96 21.884-3.773 30.971 1.078 9.128 4.867 12.231 16.846 18.88 24.245 13.221 14.718 25.851 16.58 44.838 16.58" mask="url(#d)"/>
                <path stroke="#7EBC98" d="M-13.678 1045c39.365 14.603 73.775 42.168 96.577 77.364 5.882 9.08 11.074 18.723 18.466 26.628 29.137 31.166 83.066 26.877 112.838 57.444 4.701 4.825 8.723 10.469 14.403 14.102 11.384 7.271 26.098 4.735 39.612 4.741 30.466.014 58.903 14.182 86.03 28.02 24.072 12.277 48.146 24.553 72.214 36.836 45.835 23.376 92.326 47.21 129.923 82.3 7.408 6.917 14.44 14.248 22.142 20.844 20.064 17.187 44.11 28.96 67.862 40.546 25.79 12.577 51.64 25.18 78.611 34.985m-282.337-171.621c-3.15 3.733-11.78 4.225-16.608 3.684-4.955-.556-8.72-5.578-13.534-5.57-8.75.012-13.365 14.795-22.022 16.589-16.58 3.435-19.903-5.808-17.85-20.078.889-6.183 1.922-11.598-5.765-14.165-6.395-2.134-19.065-2.071-25.698-1.35-7.412.809-14.249 3.19-20.325-1.675-4.871-3.9-7.162-10.868-13.023-13.827-7.395-3.733-18.348-1.673-26.534-1.673-10.6 0-18.867-.502-28.213-6.08-18.67-11.14-34.304-12.683-49.58 3.011-15.122 15.532-34.62 27.834-54.693 36.249-14.384 6.03-29.43 8.718-43.604 16.196-17.102 9.022-32.682 18.909-48.957 29.363-9.183 5.897-19.645 9.764-29.293 13.979-6.36 2.773-15.732 5.025-20.394 9.81-6.567 6.744-16.594 5.833-24.605 11.05m208.482-104.51c-4.85-14.558-15.879-26.445-28.609-35.043-12.73-8.598-27.191-14.247-41.583-19.63-49.79-18.63-101.181-35.095-154.284-37.828m154.341 126.414c-30.004-12.632-52.439-37.85-75.847-60.444-4.42-4.269-8.924-8.474-13.893-12.09-22.036-16.047-53.09-18.743-77.572-6.739m32.717 76.299c34.172 15.7 69.282 31.65 106.804 34.309 4.55.32 9.2.461 13.477 2.045 13.932 5.157 18.051 22.305 25.845 34.934 8.18 13.262 21.522 22.381 34.616 30.847a1266.236 1266.236 0 0 0 119.604 68.394m-166.526-169.437a5227.384 5227.384 0 0 1 224.008 125.53c7.067 4.195 14.151 8.418 21.72 11.624 8.035 3.404 16.643 5.682 23.94 10.458 9.288 6.088 17.147 16.393 28.256 16.393m-159.938-88.455l-50.149 50.055m331.243-68.474l-118.094 117.87m77.033-77.7c11.786-1.097 22.34 6.7 31.583 14.077 8.109 6.475 16.255 12.978 23.259 20.63 11.174 12.211 19.536 27.399 33.365 36.507 8.729 5.747 19.295 8.667 29.743 8.217" mask="url(#d)"/>
                <path stroke="#7EBC98" stroke-width="5" d="M-37.592 831.634c91.302 44.728 182.608 89.46 273.907 134.188 30.188 14.79 60.493 29.646 88.26 48.594 41.237 28.132 76.342 64.926 119.425 90.142 72.617 42.5 163.418 49.531 230.784 99.94 14.731 11.022 28.34 24.118 45.343 31.146 15.778 6.52 33.242 7.294 49.977 10.678 69.147 13.975 120.578 70.469 182.166 104.872 92.633 51.745 204.035 51.59 309.905 58.667 159.22 10.638 316.431 40.502 473.488 68.734 30.136 5.414 66.492 8.702 86.196-14.736 22.57-26.85 5.348-69.316-20.951-92.525-26.3-23.208-60.562-37.281-82.815-64.393-31.77-38.698-31.498-93.442-33.56-143.467-2.056-50.022-11.946-106.638-54.005-133.801-52.845-34.13-129.362-3.742-182.353-37.646-11.106-7.108-20.653-16.814-32.771-22.016-24.415-10.474-52.114-.398-77.82 6.32-65.255 17.064-136.28 11.143-197.814-16.482-35.576-15.968-67.619-38.71-99.4-61.299-109.137-77.56-218.273-155.123-327.41-232.686-31.431-22.34-67.882-45.833-105.631-37.941-13.32 2.784-26.216 9.47-39.76 8.129-10.484-1.041-19.83-6.785-28.756-12.379-57.258-35.883-116.002-73.25-162.925-121.001-41.064-41.787-103.82-53.807-157.4-30.108-9.215 4.075-18.437 8.104-27.722 11.843C104.384 519.208 8.41 529.852-83.5 514.827m1161.068 414.117c18.173-17.468 36.348-34.936 54.523-52.401 22.37-21.497 45.434-44.035 56.22-73.122 21.845-58.896-10.826-132.685 25.57-183.886 8.245-11.592 19.5-20.911 26.884-33.066 23.985-39.482.43-95.06 24.418-134.536 8.41-13.838 22.173-24.562 27.194-39.951 3.633-11.154 2.15-23.306 4.207-34.853 3.12-17.52 14.085-32.473 24.741-46.727l80.234-107.33c13.297-17.789 26.729-35.808 35.35-56.278 12.155-28.869 14.048-60.866 15.725-92.144 1.48-27.604 2.85-55.842-4.967-82.36-7.817-26.515-26.703-51.444-53.349-58.804M-31.579 487.234a652.397 652.397 0 0 0 97.018-2.3c17.358-1.706 35.255-4.32 50.034-13.585 12.36-7.745 21.55-19.522 30.475-31.054 22.393-28.944 45.018-58.269 59.66-91.809 14.643-33.537 20.7-72.272 8.87-106.902-6.693-19.604-18.691-36.894-30.835-53.68-31.639-43.734-65.658-86.395-107.591-120.388C34.122 33.521-16.561 8.454-70.392 4.402m287.336 295.772c26.328 3.234 49.192 18.988 70.874 34.27 27.644 19.482 55.285 38.969 82.929 58.453 29.126 20.527 58.58 41.238 91.606 54.623 33.027 13.385 70.44 18.977 104.465 8.385 28.673-8.924 52.658-28.413 75.863-47.473l64.212-52.74c9.4-7.722 18.975-15.639 25.376-25.981 6.592-10.661 9.371-23.172 12.04-35.418 15.331-70.257 30.676-140.589 40.873-211.769 3.986-27.802 7.186-55.745 12.798-83.26C805.078-35.53 816-69.465 829.022-102.5M761.64 178.43a2209.945 2209.945 0 0 0 228.269-68.261c41.24-14.799 82.031-30.822 123.018-46.306 8.153-3.08 16.655-6.188 25.336-5.422 9.884.869 18.6 6.635 26.494 12.645 52.701 40.12 89.98 100.003 102.71 165.002 9.54 48.69 6.635 102.182 33.978 143.587 26.735 40.482 76.093 59.407 110.427 93.684 44.402 44.32 59.59 109.545 92.902 162.704 37.294 59.51 96.542 102.303 159.294 133.844 62.75 31.539 129.921 53.17 194.807 80.052 12.755 5.285 26.107 11.318 33.91 22.707 7.923 11.573 8.611 26.46 9.033 40.479l4.404 147.155c1.222 40.748-67.274 49.714-85.759 86.044-13.736 26.991-7.918 61.168 9.532 85.919 17.452 24.748 44.87 40.995 73.535 50.759 19.826 6.755 42.07 10.623 61.378 2.511 5.724-2.403 11.038-5.806 16.977-7.615 16.704-5.087 34.202 3.205 49.971 10.71a708.9 708.9 0 0 0 182.645 58.156" mask="url(#d)"/>
                <path stroke="#7EBC98" d="M206.715-14.78c-12.014 28.12-11.905 59.728-11.598 90.31.241 24.26.723 49.535 11.836 71.1 16.384 31.782 51.502 48.084 81.06 68.197 22.038 14.994 43.224 37.516 48.454 62.238 2.5 11.822 13.083 20.417 25.163 20.526 17.588.163 35.689 6.849 51.106 15.96 23.245 13.738 43.238 32.672 67.243 45.033 24.595 12.665 54.085 19.032 71.452 40.565 15.604 19.347 17.321 46.07 18.173 70.913.817 23.744-.875 52.068-21.184 64.386-19.832 12.028-45.145 1.288-65.686-9.487l-28.328-14.856c-11.828-6.204-23.962-12.65-32.607-22.835-8.641-10.184-13.057-25.138-7.265-37.175-3.928-6.232-13.29-5.452-20.12-2.696-6.83 2.757-14.078 6.8-21.103 4.595-5.952-1.87-9.728-7.718-15.167-10.78-15.478-8.714-33.177 8.081-50.906 9.174-14.666.903-27.591-9.089-41.807-12.808-19.033-4.98-39.6 1.783-55.519 13.344-15.916 11.561-28.033 27.487-39.912 43.172m836.808 168.295c11.091 5.983 16.218 19.583 26.978 26.142 5.021 3.06 10.89 4.342 16.64 5.581 49.42 10.626 98.84 21.255 148.265 31.883 41.564 8.94 84.025 17.928 126.262 13.073 29.1-3.347 57.019-13.167 84.524-23.243 38.903-14.256 79.957-30.997 103.385-65.174m582.7 802.347c-25.965-51.68-81.08-81.746-135.351-101.71s-112.027-33.598-159.637-66.422c-10.67-7.356-21.192-16.273-25.396-28.528-7.348-21.432 6.245-47.987-6.86-66.465-3.533-4.982-8.686-8.69-11.94-13.858-3.418-5.44-4.439-11.997-5.385-18.35-6.577-44.097-11.495-94.428 17.574-128.23 7.443-8.65 16.876-15.79 22.327-25.82 5.45-10.026 5.17-24.693-4.542-30.684-19.245-11.868-48.947 21.323-63.521 4.032-3.934-4.669-4.332-11.283-6.598-16.958-7.87-19.706-33.896-22.6-55.057-24.14a387.522 387.522 0 0 1-120.353-28.565c-50.237-20.862-96.936-52.579-150.622-61.312-57.113-9.298-115.459 8.61-173.148 4.07-88.022-6.932-162.84-64.217-231.964-119.17-34.906-27.75-77.324-53.5-116.299-75.164-21.997-12.226-45.064-22.89-64.98-38.282-19.913-15.395-36.819-36.546-40.801-61.406-1.047-6.533-1.213-13.307-3.642-19.462-3.349-8.483-11.11-15.08-20.022-17.013-6.74-1.465-14.938.333-18.127 6.45-1.806 3.462-1.666 7.563-2.354 11.406-2.563 14.303-17.326 24.238-31.85 24.636-14.522.396-28.31-6.992-39.106-16.717-8.226-7.408-15.334-16.652-17.693-27.47-2.357-10.818.937-23.33 9.986-29.709 3.937-2.773 9.032-4.623 10.99-9.025 2.16-4.847-.553-10.382-3.351-14.89a223.752 223.752 0 0 0-31.755-40.052c-57.959-57.996-118.105-115.686-179.442-170.097-6.528-5.79-13.172-12.034-16.174-20.228-3.82-10.419-1.06-22.014 2.325-32.583 6.24-19.479 14.5-38.241 22.744-56.96 4.593-10.431 9.246-20.968 16.102-30.071 8.272-10.979 19.394-19.414 30.361-27.696 7.679-5.8 15.673-11.747 25.06-13.838 9.39-2.091 20.613.794 25.28 9.209 13.615-10.176 24.69-23.718 31.965-39.08 3.613-7.625 7.251-16.61 15.277-19.212 6.838-2.214 14.118 1.222 21.295 1.575 25.487 1.259 37.647-33.435 61.766-41.775m-75.509 207.782l135.48 135.511m-83.87-187.135l106.45 106.477 250.679 153.023-97.69 155.794-67.28 125.37s6.144 14.444 25.191 19.36c19.047 4.915 18.434 22.123 28.876 28.886 10.446 6.76 27.549-2.406 59.499 33.128M556.214 290.229L751.276 95.118 736.3-34.113M585.703 319.726L777.01 128.375m64.677 170.495L718.021 502.341m71.272-29.497l92.595-149.436 69.611-114.214-13.232-80.82-19.025-163.468m59.906 12.906l26.726 218.476s10.138 40.562 0 82.044c-10.139 41.486-1.844 77.436 13.823 108.78 15.67 31.341 11.062 129.059 11.062 129.059l46.572 41.482 58.493-41.482 72.805-443.41L1240.885-48h16.206l35.405 118.918-4.608 52.544 160.18.895M1102.64-21.268s26.731 235.071 38.708 271.945c11.982 36.876 115.255 222.167 115.255 222.167l98.565 208.338 17.507 117.995h90.319s90.318 82.967 131.793 103.247c41.472 20.282 100.454 27.655 160.363 17.517l85.085-76.798m-323.54-188.647L2239 547.512m-256.387-144.61h39.806m56.218 519.999l-23.33-162.947-25.703-181.428-31.207-197.24-283.8-214.498m358.51 254.433l49.614 328.133M1920.54 487.901l218.003-26.818 48.846 20.979" mask="url(#d)"/>
                <path stroke="#7EBC98" d="M1921.207 431.857l30.647 14.564 71.199 484.185m0-634.269L1874.72 501.002l8.533 39.394 58.72 360.71v45.174l-7.826 154.96m-295.287-907.232l188.873-65.457 4.938 65.457-143.138 183.457 37.775 25.934 211.904-274.848-13.821-47.015-58.963-52.55L1840.93-42l-26.095 6.453 9.213 98.644s-113.32 14.751-185.187 66.378l-140.037 29.501 132.667 152.112-23.03 223.1v87.12l6.922 121.934s20.09 72.162-53.764 138.058m-44.124 343.7l160.987-415.163-27.027-208.324-152.63-442.537-45.656-83.39s-55.999-39.653-73.197-91.678m-309.34 97.279s46.46 11.719 120.164-6.72c73.707-18.437 180.577 26.117 273.936-15.213C1558.097 17.924 1614.603-42 1614.603-42m-406.61 165.942h80.77s111.919 47.152 123.676 86.113c0 0 78.706 58.01 82.39 110.254 0 0 43.502-3.439 64.13 13.03m4.243-100.551s-84.955 49.415-111.368 69.695c-26.408 20.284-16.582 75.596-39.306 103.87-22.727 28.271-31.94 34.848-32.556 41.393-.613 6.545 0 47.11 0 47.11l-76.848 74.984-49.67-36.265-116.706-16.902m100.869-79.333l-209.952-25.193-20.824-12.557 11.205-17.421M721.053 530.056l-1.97-104.653 19.22-105.186 60.066 52.123 162.244 101.004 71.105 43.33m-269.227 24.275l24.157 3.075 23.954 49.165s52.82 15.982 85.99 35.035c33.166 19.053 149.251 112.726 149.251 112.726s22.727-9.473 57.734-5.171c35.012 4.302 42.183 21.49 93.57 19.041l-118.871-196.662-16.462 9.218-85.502 156.474-50.943 93.545m271.778-118.185l-118.871-20.037-324.467-233.486-34.725-20.284-57.35-30.213-133.427-133.512 193.85-193.972 58.002 53.465m6.49 422.853l220.192-339.875 129.907-224.945m-347.38 80.05s32.009-15.517 53.34 5.994c21.33 21.511 72.838 58.008 114.076 58.694m74.934 37.13s60.806 25.252 87.833 32.629c27.02 7.374 68.092 12.892 68.092 12.892s94.671 25.828 131.523 39.348c36.856 13.52 133.152 7.317 162.088 36.54m36.918-298.573l122.535 195.349 5.529-200.053m-5.53 200.053l-9.215 131.83s10.136 34.112 58.043 66.378m37.775 25.934s35.013 38.6 52.514 81.008c17.508 42.408 43.296 125.314 43.296 125.314l10.683-1.583 35.963 247.598-7.942 262.016m5.001-165.036l219.276-30.462a170.539 170.539 0 0 1 64.865 3.476L2211 940.747m-271.787-812.196l3.99 23.355 79.85 57.773m-25.106-18.164l-218.124 292.892-303.806 96.197m12.572 26.438c53.336-21.18 64.592 3.666 97.758 14.267 33.166 10.6 45.144-19.822 74.166-25.352 12.17-2.32 30.744-2.693 48.208-2.346 24.846.493 49.407-6.875 69.041-22.11 30.435-23.608 69.646-30.859 69.646-30.859l27.313-39.64-42.049-306.994s69.635-85.127 95.61-102.64c0 0 40.718-16.902 45.017-104.79 0 0 23.957 30.732 54.664 43.022M234 468.161l1242.017 692.92 58.011 21.281 71.667 26.66 80.847-7.415 336.51-136.402L2211 957.342" mask="url(#d)"/>
                <path stroke="#7EBC98" d="M1999.682 1073.836l85.838-152.163 50.606-172.377L2169.31 304.5M2022.44 930.025l20.16 123.027 159.901 91.461m-865.31-167.596l181.94 96.92m-124.862-66.513l-219.924 397.832m125.468-421.037l-203.798 363.333m-144.17 4.41l212.387-379.754m-80.228-42.588l-210.03 374.782m59.576-445.771l-209.01 379.56m171.444-362.455l-116.148 208.342H604.692s-33.187-2.765-80.2-28.577c-37.139-20.395-161.145-93.713-211.593-123.61a94.689 94.689 0 0 0-46.815-13.22l-9.068-.144a94.755 94.755 0 0 1-45.895-12.683L-41.5 759.897m231.778-275.013l1251.419 694.966 162.238 59.922 81.811-38.756M154.722 497.676l1163.413 647.368s73.782 41.26 84.846 51.707c0 0 119.22 21.51 169.61 46.095 50.392 24.582 194.812 110.01 217.55 204.654m-492.087-266.127L85.684 514.468m283.998-16.792L271.61 665.143l1058.24 585.077 38.716-60.229M372.206 720.76l85.583-149.253m14.783 204.746l79.968-143.995m18.03 198.172l76.214-131.792m97.338-9.791L642.244 870.06s-24.647 27.24-27.414 46.6c-2.765 19.36-14.288 49.78-47.472 46.092l-41.483 64.992m43.548 127.303l85.66-139.733M-31.362 635.642l832.092 460.935 419.25 226.03 50.256 43.154M108.417 526.976L17.804 684.195m53.942-167.513L35.012 582.79M312.17 737.05L-41.5 539.687m318.946-77.77l-169.029 297.98-67.409 47.635m77.74-65.85S61.742 698.177-18.455 670.52m1.228 57.31l1197.985 665.722" mask="url(#d)"/>
                <path stroke="#7EBC98" stroke-width="3" d="M960 1225l-145 259" mask="url(#d)"/>
                <path stroke="#7EBC98" d="M921.811 1294.323L597.57 1109.817M258.012 838.775l942.522 519.758 265.145 31.344M217.34 909.818L332.12 699.4m-60.584-33.496L194.71 804.611l-84.749-46.83m184.39 10.856L-29 594m490.017 176.656l-48.743 85.152v29.5l-77.73 137.904m451.403-246.198l-73.724 132.52m142.782-94.02l-73.391 132.38s-15.184 36.823-27.628 47.885c-12.445 11.062-64.309 81.185-76.251 119.026m140.344-98.73l552.954 305.583 122.303 36.875m-691.858-312.681l435.681 246.432 134.487 66.249 116.057 11.061 69.241 10.604 37.056 25.72M1384.484 1423l9.794-94.335 48.66-72.151 98.33-244.33" mask="url(#d)"/>
                <path stroke="#7EBC98" stroke-width="3" d="M1645 1350l201.066-192 127.895 9.23 27.039 18.701" mask="url(#d)"/>
                <path stroke="#7EBC98" d="M1604.244 1238.596l-20.83 8.396-14.88 33.332-140.218 146.1M1300.726 1175l102.19 20.643M1295 1185.32l66.147 14.88 80.256 56.614L1734 1442.93m-284.62-204.334s70.527 37.84 109.465 51.825l87.42 58.628 12.71 46.16m-23.755-53.568L1566.378 1446" mask="url(#d)"/>
                <path stroke="#7EBC98" stroke-width="3" d="M1747.945 1333.556s21.606 34.05 38.19 52.47c16.582 18.422 32.493 37.971 25.797 64.474M273.5 461.549l58.3-96.049" mask="url(#d)"/>
                <path stroke="#7EBC98" d="M159.889 496.473c-4.373-18.487-27.303-38.932-27.303-38.932l-19.934-15.349S42.604 313.232-9.93 289.282m184.86 113.3s44.634 24.648 55.232 65.29m-11.53-210.368L112.652 442.192l-39.086 42.614m39.086-42.614l-144.7-74.613m24.883 67.646s89.236 22.932 84.94 49.031m-79.409-56.341L67.49 271.78l29.033-106.854 55.145-18.576m-55.145 18.576l-21.506-57.57-98.311-69.089M50.564 49.6l-66.025 78.941L91.453 174.6m-16.436-67.244l18.698-23.814M-9.929 159.399l47.925 64.022-8.708 97.56M-38.5 238.157L67.49 271.78l141.047 70.868M93.715 79.722l21.7-36.387-14.285-77.376M64.264-20.684c0 1.381 6.914 40.53 6.914 40.53L50.44 47.02M23.249 26.756l47.929-6.91 44.238 23.489 76.037-73.691m108.93 17.516c-.795 17.653 10.744 34.323 26.053 43.164 15.306 8.844 33.74 10.836 51.369 9.5 8.066-.613 16.138-1.888 23.742-4.64 5.38-1.948 11.042-4.665 16.556-3.14 6.997 1.94 10.4 9.68 15.828 14.5 7.86 6.979 20.41 7.234 29.405 1.8 8.998-5.436 14.463-15.679 15.605-26.121.702-6.414-.02-13.146 2.451-19.104 2.211-5.336 6.704-9.348 9.844-14.194 4.252-6.56 5.921-14.745 4.576-22.445M721.41 67.746l-34.102-31.318s-42.142-.908-55.171-18.263m55.171 18.263l19.814-69.948m77.39 122.435L761.76-34.5m1061.955 97.64l3.687 65.4m-4.757-76.831l-49.927-72.393m406.757 738.92l-113.058 348.646s-81.618 121.189-95.803 216.27m23.137-79.391l198.627 73.756m-107.536 33.983l26.432-81.268 88.476-150.454m-93.46-63.213l108.21 57.072m-614.751-338.06s109.887-25.904 158.17-24.465l89.165-.057m-119.837 42.023l-.307 45.716-4.61 84.165 101.385-86.587 387.098-60.795m-474.198 186.85l-14.285-39.468M591.428 1123.937c-14.595 1.164-30.25 2.104-42.867-5.322-6.225-3.665-11.18-9.087-16.473-14.002-7.109-6.6-14.945-12.357-22.762-18.097-6.767-4.972-13.755-10.048-21.89-12.131-13.359-3.42-27.954 1.708-41.092-2.48-25.035-7.977-33.17-45.244-59.103-49.5-5.298-.868-10.755-.152-16.074-.894-7.802-1.092-15.091-5.46-19.73-11.827-3.943-5.41-6.372-12.475-12.33-15.536-6.125-3.143-13.491-.785-20.376-.925-10.893-.224-20.671-6.878-28.241-14.707-7.57-7.83-13.643-17.037-21.485-24.597-19.444-18.737-47.26-25.294-73.635-31.103-18.414-4.055-34.18-20.003-48.376-32.406-8.361-7.305-15.985-15.47-24.848-22.156C90.38 844.28 47.857 842.356 9.17 832.997c-7.922-1.915-17.124-5.589-18.612-13.596" mask="url(#d)"/>
                <path stroke="#7EBC98" stroke-width="3" d="M961.017 1224.5L635.5 1048.419l20.219-32.994m1046.45-226.929L2022.5 348.5l-295.472 404.662-55.857 108.772v61.032" mask="url(#d)"/>
                <path fill="url(#e)" d="M691.183 1313.418h1442v131h-1442z" mask="url(#d)"/>
            </g>
        </g>
        <g mask="url(#b)">
            <g stroke-linecap="round" transform="rotate(-135 611.622 118.94)">
                <use fill="#000" filter="url(#f)" xlink:href="#g"/>
                <use stroke="#04B950" stroke-width="5" xlink:href="#g"/>
            </g>
            <g stroke-linecap="round" transform="rotate(-135 611.622 118.94)">
                <use fill="#000" filter="url(#h)" xlink:href="#i"/>
                <use stroke="#04B950" stroke-width="5" xlink:href="#i"/>
            </g>
            <g transform="rotate(-135 611.622 118.94)">
                <circle cx="23" cy="23" r="23" fill="#04B950" fill-opacity=".099"/>
                <circle cx="23" cy="23" r="13" fill="#04B950" fill-opacity=".099"/>
                <circle cx="23" cy="23" r="6" fill="#FFF"/>
            </g>
            <g transform="rotate(-135 466.584 -21.907)">
                <circle cx="23" cy="23" r="23" fill="#04B950" fill-opacity=".099"/>
                <circle cx="23" cy="23" r="13" fill="#04B950" fill-opacity=".099"/>
                <circle cx="23" cy="23" r="6" fill="#FFF"/>
            </g>
            <g transform="rotate(-135 672.33 -144.62)">
                <circle cx="23" cy="23" r="23" fill="#04B950" fill-opacity=".099"/>
                <circle cx="23" cy="23" r="13" fill="#04B950" fill-opacity=".099"/>
                <circle cx="23" cy="23" r="6" fill="#FFF"/>
            </g>
        </g>
    </g>
</svg>
