<svg xmlns="http://www.w3.org/2000/svg" width="16" height="16" viewBox="0 0 16 16">
    <path fill="#FFF" fill-rule="evenodd" d="M14.592 0H1.408A1.42 1.42 0 0 0 0 1.408v3.92h5.328c.8-.576 1.648-1.072 2.672-1.072.992 0 1.888.496 2.672 1.072H16v-3.92A1.42 1.42 0 0 0 14.592 0zm.336 3.712c0 .304-.24.56-.544.56h-2.096a.567.567 0 0 1-.56-.56V1.616c0-.304.256-.544.56-.544h2.096a.54.54 0 0 1 .544.544v2.096zm-4.256 4.816c0-1.472-1.2-2.656-2.672-2.656a2.663 2.663 0 0 0-2.672 2.656C5.328 10 6.528 11.2 8 11.2c1.472 0 2.672-1.2 2.672-2.672zm1.408-1.056c.096.32.128.656.128.992A4.217 4.217 0 0 1 8 12.688a4.217 4.217 0 0 1-4.208-4.224c0-.336.032-.672.128-.992H0v7.12C0 15.36.64 16 1.408 16h13.184A1.42 1.42 0 0 0 16 14.592v-7.12h-3.92z"/>
</svg>
