<svg xmlns="http://www.w3.org/2000/svg" width="187" height="39" viewBox="0 0 187 39">
    <g fill="none" fill-rule="evenodd">
        <path fill="#FFF" d="M7.826 0H66l-7.826 39H0z"/>
        <path fill="#2A3860" d="M9.061 31.942C8.805 33.1 9.381 34 10.214 34h10.434c.896 0 1.792-.965 1.984-2.058l1.152-5.658h1.217l4.352 7.652 7.362-7.652h1.216l-1.152 5.658C36.523 33.1 37.099 34 37.93 34h10.434c.896 0 1.792-.965 1.985-2.058l2.24-11.381c.256-1.157-.32-2.058-1.152-2.058h-1.985c.32-1.672.704-3.408 1.025-5.08l-4.29-1.671h9.795c.448 0 .896-.45 1.024-1.03l.96-4.693C58.095 5.45 57.839 5 57.391 5H42.22l-8.898 6.559L28.073 5h-15.17c-.449 0-.897.45-1.025 1.029l-.96 4.694c-.128.579.128 1.029.576 1.029h5.313l-1.344 6.816H13.35c-.896 0-1.792.964-1.984 2.057-.832 3.73-1.6 7.524-2.305 11.317z"/>
        <path fill="#E04D27" d="M96.51 0H119l-4.51 23H92l4.51-23zm7.347 7.688h4.575l-1.482 7.56h-4.575l1.353-7.047-1.804-.513h1.933zM164.51 0H187l-4.51 23H160l4.51-23zm7.347 7.688h4.575l-1.482 7.56h-4.575l1.353-7.047-1.804-.513h1.933zM120.857 0H140l-1.857 9.546h-7.747l2.817.833L130.716 23h-9.731l2.625-13.518H119L120.857 0zM142.798 0H162l-1.862 9.546h-7.771l2.826.833L152.688 23h-9.761l2.633-13.518H141L142.798 0zM75.32 17.298L78.12 23l5.279-5.574L82.227 23h8.146L95 0h-8.146l-5.279 5.638L78.773 0h-8.146L66 23h8.146l1.108-5.702z"/>
        <path fill="#FFF" fill-rule="nonzero" d="M72.327 29.01l.646-2.946H64.84L62 39h8.326l.646-2.946h-4.97l.516-2.241h4.454l.645-2.946H67.1l.387-1.857h4.841zm.84 9.926h3.356l1.097-4.931c.452 0 .84 0 1.291-.064l1.743 4.995h3.679l.13-.512-2.26-5.7c2.97-1.665 3.42-4.098 4.002-6.724h-3.421c-.516 2.433-.904 4.867-4.26 4.867h-.258L79.363 26h-3.356l-2.84 12.936zm19.428-12.872h-3.421L86.334 39h16.524l2.84-12.936h-3.421l-2.195 9.862H96.92l2.194-9.862h-3.42l-2.195 9.862h-3.163l2.259-9.862zm23.882 2.946l.646-2.946h-8.133L106.15 39h8.262l.645-2.946h-4.97l.516-2.241h4.454l.646-2.946h-4.454l.387-1.857h4.841zm8.262 9.926h3.421L131 26h-3.421l-1.033 4.675h-4.002L123.577 26h-3.42l-2.84 12.936h3.42l1.162-5.187h4.002l-1.162 5.187z"/>
    </g>
</svg>
