<svg xmlns="http://www.w3.org/2000/svg" width="18" height="13" viewBox="0 0 18 13">
    <path fill="#FFF" fill-rule="evenodd" d="M15.526 6.238c-.33 1.23-.951 2.38-1.742 3.381-2.322 2.89-5.844 4.017-9.414 3.06A9.156 9.156 0 0 1 0 10.024c.229.082.477.17.711.232a6.424 6.424 0 0 0 4.2-.296c-1.303-.37-2.238-1.562-2.313-2.92a3.075 3.075 0 0 0 1.42.318C2.653 6.678 1.92 5.123 2.351 3.67l.01-.04c.367.35.798.612 1.3.767a3.185 3.185 0 0 1-.695-2.946A3.22 3.22 0 0 1 3.794 0a9.192 9.192 0 0 0 5.512 4.948c.004-.25.047-.49.11-.723a3.207 3.207 0 0 1 3.933-2.271 3.197 3.197 0 0 1 1.983 1.577 6.548 6.548 0 0 0 2.169-.214 3.21 3.21 0 0 1-1.82 1.332c.64.108 1.272.09 1.905-.012-.577.514-1.25.92-1.97 1.186-.017.142-.053.279-.09.415z"/>
</svg>
